# AST/ASF file generated using VICON BodyLanguage
# -----------------------------------------------
:version 1.10
:name VICON
:units
  mass 1.0
  length 0.45
  angle deg
:documentation
   .ast/.asf automatically generated from VICON data using
   VICON BodyBuilder and BodyLanguage model FoxedUp or BRILLIANT.MOD
:root
   order TX TY TZ RX RY RZ
   axis XYZ
   position 0 0 0  
   orientation 0 0 0 
:bonedata
  begin
     id 1 
     name lhipjoint
     direction 0.677091 -0.635792 0.370561 
     length 2.74323 
     axis 0 0 0  XYZ
  end
  begin
     id 2 
     name lfemur
     direction 0.34202 -0.939693 0  
     length 7.44995  
     axis 0 0 20  XYZ
    dof rx ry rz
    limits (-160.0 20.0)
           (-70.0 70.0)
           (-60.0 70.0)
  end
  begin
     id 3 
     name ltibia
     direction 0.34202 -0.939693 0   
     length 7.34467   
     axis 0 0 20   XYZ
    dof rx
    limits (-10.0 170.0)
  end
  begin
     id 4 
     name lfoot
     direction 0.101953 -0.280114 0.954537   
     length 1.72105   
     axis -90 7.62852e-016 20   XYZ
    dof rx rz
    limits (-45.0 90.0)
           (-70.0 20.0)
  end
  begin
     id 5 
     name ltoes
     direction 1.53537e-011 -4.21915e-011 1   
     length 0.865872   
     axis -90 7.62852e-016 20   XYZ
    dof rx
    limits (-90.0 20.0)
  end
  begin
     id 6 
     name rhipjoint
     direction -0.695735 -0.620586 0.361699   
     length 2.81045  
     axis 0 0 0  XYZ 
  end
  begin
     id 7 
     name rfemur
     direction -0.34202 -0.939693 0   
     length 7.29387   
     axis 0 0 -20   XYZ
    dof rx ry rz
    limits (-160.0 20.0)
           (-70.0 70.0)
           (-70.0 60.0)
  end
  begin
     id 8 
     name rtibia
     direction -0.34202 -0.939693 0   
     length 7.44935   
     axis 0 0 -20   XYZ
    dof rx
    limits (-10.0 170.0)
 end
 begin
     id 9 
     name rfoot
     direction -0.104163 -0.286184 0.952496   
     length 1.77731  
     axis -90 -7.62852e-016 -20   XYZ
    dof rx rz
    limits (-45.0 90.0)
           (-20.0 70.0)
  end
  begin
     id 10 
     name rtoes
     direction -1.5355e-011 -4.21888e-011 1   
     length 0.892424   
     axis -90 -7.62852e-016 -20   XYZ
    dof rx
    limits (-90.0 20.0)
  end
  begin
     id 11 
     name lowerback
     direction 0.0100202 0.997226 -0.0737589   
     length 2.16892   
     axis 0 0 0   XYZ
    dof rx ry rz
    limits (-20.0 45.0)
           (-30.0 30.0)
           (-30.0 30.0)
  end
  begin
     id 12 
     name upperback
     direction 0.00432398 0.999988 -0.00215019   
     length 2.17326   
     axis 0 0 0   XYZ
    dof rx ry rz
    limits (-20.0 45.0)
           (-30.0 30.0)
           (-30.0 30.0)
  end
  begin
     id 13 
     name thorax
     direction -0.00195047 0.999485 0.0320434   
     length 2.18139   
     axis 0 0 0   XYZ
    dof rx ry rz
    limits (-20.0 45.0)
           (-30.0 30.0)
           (-30.0 30.0)
  end
  begin
     id 14 
     name lowerneck
     direction 0.00782762 0.986241 0.165128   
     length 1.88415   
     axis 0 0 0   XYZ
    dof rx ry rz
    limits (-20.0 45.0)
           (-30.0 30.0)
           (-30.0 30.0)
  end
  begin
     id 15 
     name upperneck
     direction 0.00988667 0.981098 -0.193258   
     length 1.9242   
     axis 0 0 0   XYZ
    dof rx ry rz
    limits (-20.0 45.0)
           (-30.0 30.0)
           (-30.0 30.0)
  end
  begin
     id 16
     name head
     direction 0.00252199 0.996513 -0.0833958  
     length 1.93887  
     axis 0 0 0   XYZ
    dof rx ry rz
    limits (-20.0 45.0)
           (-30.0 30.0)
           (-30.0 30.0)
  end
  begin
     id 17 
     name lclavicle
     direction 0.929492 0.368193 -0.0218667  
     length 3.5955  
     axis 0 0 0   XYZ
    dof ry rz
    limits (-20.0 10.0)
           (0.0 20.0)
  end
  begin
     id 18 
     name lhumerus
     direction 1 -4.48972e-011 1.41911e-027   
     length 5.2795   
     axis 180 -30 -90   XYZ
    dof rx ry rz
    limits (-60.0 90.0)
           (-90.0 90.0)
           (-90.0 90.0)
  end
  begin
     id 19
     name lradius
     direction 1 -4.48963e-011 7.05772e-027   
     length 3.53504   
     axis 180 -30 -90   XYZ
    dof rx
    limits (-10.0 170.0)
  end
  begin
     id 20
     name lwrist
     direction 1 -4.48957e-011 9.54866e-027   
     length 1.76752   
     axis -7.69462e-015 90 90   XYZ
    dof ry
    limits (-180.0 0.0)
 end
  begin
     id 21 
     name lhand
     direction 1 -4.48979e-011 1.90973e-026   
     length 0.667948   
     axis -1.21857e-014 90 90   XYZ
    dof rx rz
    limits (-90.0 90.0)
           (-45.0 45.0)
  end
  begin
     id 22 
     name lfingers
     direction 1 -4.48987e-011 3.81946e-026   
     length 0.538517   
     axis -2.43714e-014 90 90   XYZ
    dof rx
    limits (0.0 90.0)
  end
  begin
     id 23
     name lthumb
     direction 0.707107 -6.34962e-011 0.707107   
     length 0.773206   
     axis -90 45 2.85299e-015   XYZ
    dof rx rz
    limits (-45.0 45.0)
           (-45.0 45.0)
  end
  begin
     id 24 
     name rclavicle
     direction -0.898763 0.414256 -0.143584   
     length 3.5176  
     axis 0 0 0   XYZ 
    dof ry rz
    limits (-10.0 20.0)
           (-20.0 0.0)
  end
  begin
     id 25 
     name rhumerus
     direction -1 -4.48971e-011 1.129e-027  
     length 5.25035   
     axis 180 30 90   XYZ
    dof rx ry rz
    limits (-90.0 60.0)
           (-90.0 90.0)
           (-90.0 90.0)
  end
  begin
     id 26 
     name rradius
     direction -1 -4.48955e-011 6.34664e-027   
     length 3.58884   
     axis 180 30 90   XYZ
    dof rx
    limits (-10.0 170.0)
  end
  begin
     id 27 
     name rwrist
     direction -1 -4.48966e-011 9.54866e-027   
     length 1.79442   
     axis -7.69462e-015 -90 -90   XYZ
    dof ry
    limits (-180.0 0.0)
  end
  begin
     id 28
     name rhand
     direction -1 -4.48973e-011 1.90973e-026   
     length 0.779235   
     axis -1.21857e-014 -90 -90   XYZ
    dof rx rz
    limits (-90.0 90.0)
           (-45.0 45.0)
  end
  begin
     id 29
     name rfingers
     direction -1 -4.48984e-011 3.81946e-026   
     length 0.62824   
     axis -2.43714e-014 -90 -90   XYZ
    dof rx
    limits (0.0 90.0)
  end
  begin
     id 30
     name rthumb
     direction -0.707107 -6.34968e-011 0.707107   
     length 0.90203   
     axis -90 -45 -2.85299e-015   XYZ
    dof rx rz
    limits (-45.0 45.0)
           (-45.0 45.0)
  end
:hierarchy
  begin
    root lhipjoint rhipjoint lowerback
    lhipjoint lfemur
    lfemur ltibia
    ltibia lfoot
    lfoot ltoes
    rhipjoint rfemur
    rfemur rtibia
    rtibia rfoot
    rfoot rtoes
    lowerback upperback
    upperback thorax
    thorax lowerneck lclavicle rclavicle
    lowerneck upperneck
    upperneck head
    lclavicle lhumerus
    lhumerus lradius
    lradius lwrist
    lwrist lhand lthumb
    lhand lfingers
    rclavicle rhumerus
    rhumerus rradius
    rradius rwrist
    rwrist rhand rthumb
    rhand rfingers
  end

#!OML:ASF I:\Random Stuff\random\construction\7_22_03\Session 2\subj1.ASF
:FULLY-SPECIFIED
:DEGREES
1159
root 20.7517 17.3867 -1.09772 13.5821 -177.572 -2.66722
lowerback 14.1708 -3.60457 -4.33305
upperback 6.08048 -6.18659 -0.115591
thorax -1.0639 -3.50403 3.20391
lowerneck -19.1788 -0.516607 -0.0707714
upperneck 32.9043 -0.817054 6.25185
head 14.622 1.19205 2.61377
rclavicle -1.98785e-015 -7.15625e-015
rhumerus -35.6202 10.9689 -82.8769
rradius 71.3073
rwrist -25.917
rhand -32.2059 17.1659
rfingers 7.12502
rthumb -5.44757 -12.744
lclavicle -1.98785e-015 -7.15625e-015
lhumerus 18.3094 -61.4852 67.198
lradius 32.1119
lwrist 9.06887
lhand -25.6267 50.535
lfingers 7.12502
lthumb 0.906285 -639.487
rfemur -33.1191 17.3688 -2.04506
rtibia 17.8445
rfoot -2.77106 -3.37734
rtoes -33.2235
lfemur -22.5053 -11.375 -14.0487
ltibia 27.5266
lfoot -19.3494 -1.86274
ltoes -31.5874
1160
root 20.9396 17.3659 -1.2028 13.8408 -176.765 -3.21028
lowerback 14.9201 -3.78134 -4.09778
upperback 6.24652 -6.47525 -0.199807
thorax -1.29968 -3.65958 3.08792
lowerneck -19.0884 -0.453189 -0.110241
upperneck 32.8238 -0.660204 6.11952
head 14.5554 1.22735 2.58629
rclavicle 3.10104e-014 -1.98785e-014
rhumerus -35.2392 12.9049 -83.3753
rradius 71.332
rwrist -26.3863
rhand -32.1702 17.119
rfingers 7.12502
rthumb -5.41305 -12.7918
lclavicle 3.10104e-014 -1.98785e-014
lhumerus 19.2357 -61.383 66.8414
lradius 32.1629
lwrist 9.92587
lhand -25.8048 51.2519
lfingers 7.12502
lthumb 0.734252 -638.77
rfemur -33.4908 16.0571 -1.2462
rtibia 19.3556
rfoot -3.70228 -2.87382
rtoes -37.3216
lfemur -22.3979 -11.6118 -13.846
ltibia 27.0683
lfoot -19.3772 -2.20685
ltoes -33.3194
1161
root 21.1322 17.3678 -1.30162 14.0765 -176.029 -3.55513
lowerback 15.7556 -3.80413 -3.62912
upperback 6.43851 -6.53187 -0.306053
thorax -1.59985 -3.69675 2.79873
lowerneck -19.0275 -0.469929 0.0675106
upperneck 32.675 -0.706908 5.99877
head 14.4754 1.20538 2.48789
rclavicle 4.81059e-014 -5.40694e-014
rhumerus -34.8769 14.2212 -83.8196
rradius 71.356
rwrist -26.6694
rhand -31.8127 17.0761
rfingers 7.12502
rthumb -5.06786 -12.8433
lclavicle 4.81059e-014 -5.40694e-014
lhumerus 20.1594 -61.5894 66.477
lradius 32.4657
lwrist 11.5952
lhand -26.1688 52.5507
lfingers 7.12502
lthumb 0.382666 -637.47
rfemur -33.8839 15.3795 -0.50576
rtibia 20.8144
rfoot -4.52607 -2.93696
rtoes -38.37
lfemur -22.3379 -11.7793 -13.4225
ltibia 26.6581
lfoot -19.2997 -2.58753
ltoes -34.4848
1162
root 21.3206 17.3756 -1.39133 14.5113 -175.395 -3.4955
lowerback 16.6044 -4.0878 -3.09804
upperback 6.52133 -6.88648 -0.0413969
thorax -1.95998 -3.87532 2.91788
lowerneck -18.8419 -0.215659 0.033191
upperneck 32.378 -0.183616 5.47754
head 14.2721 1.32062 2.34761
rclavicle 3.53837e-014 1.39149e-014
rhumerus -34.2622 16.6579 -83.9994
rradius 71.394
rwrist -26.8778
rhand -31.2777 17.056
rfingers 7.12502
rthumb -4.55128 -12.8751
lclavicle 3.53837e-014 1.39149e-014
lhumerus 19.3642 -60.1616 68.0227
lradius 32.5157
lwrist 13.3505
lhand -26.5366 53.8503
lfingers 7.12502
lthumb 0.0274895 -636.17
rfemur -34.5113 13.8014 0.927003
rtibia 22.118
rfoot -5.37266 -1.80492
rtoes -37.204
lfemur -22.5771 -12.3433 -12.4498
ltibia 26.3572
lfoot -18.9869 -2.22423
ltoes -35.0613
1163
root 21.4966 17.3836 -1.47072 15.1842 -175.239 -3.03024
lowerback 17.2817 -4.21066 -2.28132
upperback 6.60767 -6.96223 0.258377
thorax -2.27231 -3.913 2.85906
lowerneck -18.957 0.0263558 0.0693207
upperneck 32.3114 0.273027 5.04831
head 14.2479 1.44161 2.23938
rclavicle 9.62118e-014 6.36111e-015
rhumerus -33.4552 18.9783 -83.9613
rradius 71.4626
rwrist -27.0476
rhand -30.6964 17.2833
rfingers 7.12502
rthumb -3.99 -12.6591
lclavicle 9.62118e-014 6.36111e-015
lhumerus 18.3587 -58.1534 69.9326
lradius 32.3972
lwrist 14.9074
lhand -27.0475 54.3638
lfingers 7.12502
lthumb -0.465946 -635.657
rfemur -35.5974 12.3391 2.61805
rtibia 23.1901
rfoot -6.10611 -0.276254
rtoes -35.976
lfemur -23.028 -12.3154 -11.1818
ltibia 26.154
lfoot -18.6303 -1.54925
ltoes -35.4878
1164
root 21.6542 17.3932 -1.54349 16.1577 -175.416 -2.72985
lowerback 17.6729 -4.27181 -1.7194
upperback 6.71528 -6.9854 0.516249
thorax -2.39054 -3.93301 2.85691
lowerneck -19.3154 0.352145 0.211437
upperneck 32.2837 0.822225 4.53691
head 14.2967 1.59927 2.10106
rclavicle -6.99722e-014 2.38542e-014
rhumerus -32.2276 21.2613 -83.5909
rradius 71.4134
rwrist -27.0738
rhand -30.0766 17.4329
rfingers 7.12502
rthumb -3.39142 -12.5198
lclavicle -6.99722e-014 2.38542e-014
lhumerus 17.2438 -55.4469 72.1552
lradius 32.1951
lwrist 16.2174
lhand -27.2272 54.3742
lfingers 7.12502
lthumb -0.639515 -635.647
rfemur -37.0165 10.8858 3.98928
rtibia 24.0916
rfoot -6.81579 1.37318
rtoes -35.0047
lfemur -23.7485 -12.0724 -10.2119
ltibia 26.0587
lfoot -18.3371 -0.540165
ltoes -34.8895
1165
root 21.8031 17.4129 -1.61028 17.352 -175.891 -2.86326
lowerback 17.9615 -4.26414 -1.75307
upperback 6.76839 -7.00838 0.640046
thorax -2.46228 -3.95525 3.03569
lowerneck -19.5546 0.675253 0.316207
upperneck 32.0742 1.32316 4.14474
head 14.2431 1.74171 2.00029
rclavicle 3.10104e-014 -8.34896e-015
rhumerus -30.7643 23.2478 -83.0476
rradius 71.2815
rwrist -26.8872
rhand -29.5484 17.3664
rfingers 7.12502
rthumb -2.88133 -12.5939
lclavicle 3.10104e-014 -8.34896e-015
lhumerus 16.078 -52.3208 74.4668
lradius 31.9606
lwrist 17.1645
lhand -26.8459 54.681
lfingers 7.12502
lthumb -0.271256 -635.339
rfemur -38.6307 9.60211 4.76063
rtibia 24.7593
rfoot -7.32938 2.97957
rtoes -33.7705
lfemur -24.6223 -11.6669 -9.86897
ltibia 25.9894
lfoot -18.0801 0.793876
ltoes -33.5279
1166
root 21.9476 17.4316 -1.67362 18.6166 -176.537 -3.25671
lowerback 18.2752 -4.24382 -2.2077
upperback 6.74701 -7.07979 0.664862
thorax -2.58737 -3.99832 3.36021
lowerneck -19.5944 1.04705 0.621491
upperneck 31.7147 1.83988 3.69387
head 14.0863 1.90538 1.83543
rclavicle 5.4467e-014 -3.49861e-014
rhumerus -29.3064 24.8106 -82.4762
rradius 71.2128
rwrist -26.6384
rhand -29.0315 17.3014
rfingers 7.12502
rthumb -2.38215 -12.665
lclavicle 5.4467e-014 -3.49861e-014
lhumerus 14.9881 -48.9936 76.6348
lradius 31.6221
lwrist 17.6352
lhand -26.8275 55.2521
lfingers 7.12502
lthumb -0.25351 -634.768
rfemur -40.2994 8.42945 5.20557
rtibia 25.2787
rfoot -7.68589 4.5996
rtoes -32.2278
lfemur -25.5322 -10.9064 -10.0466
ltibia 25.8743
lfoot -17.7441 2.31338
ltoes -32.4705
1167
root 22.0863 17.451 -1.73699 19.7811 -177.244 -3.58604
lowerback 18.662 -4.32016 -2.83595
upperback 6.73149 -7.32046 0.786517
thorax -2.69447 -4.13185 3.92167
lowerneck -19.5953 1.59422 0.842432
upperneck 31.3812 2.64378 3.26211
head 13.9319 2.1859 1.74432
rclavicle 2.62396e-014 2.38542e-015
rhumerus -27.7978 26.3981 -81.7866
rradius 71.2537
rwrist -26.4801
rhand -28.5906 17.3866
rfingers 7.12502
rthumb -1.95629 -12.5842
lclavicle 2.62396e-014 2.38542e-015
lhumerus 14.0685 -45.1516 78.7323
lradius 31.0423
lwrist 17.6707
lhand -27.5316 55.8032
lfingers 7.12502
lthumb -0.933528 -634.219
rfemur -41.8033 7.62202 5.59038
rtibia 25.6352
rfoot -7.87295 6.03317
rtoes -30.497
lfemur -26.2726 -9.81763 -10.4188
ltibia 25.692
lfoot -17.3033 4.05354
ltoes -31.8396
1168
root 22.2253 17.4718 -1.80519 20.7886 -177.821 -3.7389
lowerback 18.9469 -4.13374 -2.97914
upperback 6.88515 -7.15915 0.642131
thorax -2.6939 -4.07099 3.83957
lowerneck -19.6071 1.84816 1.60423
upperneck 31.0013 2.74288 3.10757
head 13.7865 2.27771 1.55264
rclavicle 1.55052e-014 -2.42517e-014
rhumerus -26.6117 26.1055 -81.3743
rradius 71.4516
rwrist -26.3867
rhand -28.372 17.551
rfingers 7.12502
rthumb -1.74524 -12.4216
lclavicle 1.55052e-014 -2.42517e-014
lhumerus 13.9096 -42.8643 79.9572
lradius 30.5128
lwrist 17.7004
lhand -28.3515 56.7335
lfingers 7.12502
lthumb -1.72544 -633.294
rfemur -42.9841 7.24526 6.0269
rtibia 25.8007
rfoot -7.93639 7.05431
rtoes -28.8797
lfemur -26.8179 -8.65052 -10.7415
ltibia 25.579
lfoot -16.8377 5.95109
ltoes -30.6394
1169
root 22.3642 17.4952 -1.87639 21.7445 -178.113 -3.72618
lowerback 19.36 -4.29818 -3.29027
upperback 6.95229 -7.47675 0.837495
thorax -2.74173 -4.24808 4.31779
lowerneck -19.4703 2.38992 1.83866
upperneck 30.6393 3.48989 2.85563
head 13.6025 2.56753 1.51996
rclavicle -1.17681e-013 -1.51076e-014
rhumerus -25.3208 26.5821 -80.7278
rradius 71.8413
rwrist -26.7295
rhand -28.2327 17.4804
rfingers 7.12502
rthumb -1.61063 -12.4932
lclavicle -1.17681e-013 -1.51076e-014
lhumerus 14.2533 -40.381 80.3747
lradius 29.8798
lwrist 18.4166
lhand -28.5244 57.8447
lfingers 7.12502
lthumb -1.8924 -632.184
rfemur -43.8928 7.04332 6.60012
rtibia 25.7581
rfoot -7.97675 7.60564
rtoes -28.0229
lfemur -27.3372 -7.47284 -10.9472
ltibia 25.5229
lfoot -16.4392 7.79036
ltoes -29.1687
1170
root 22.497 17.5192 -1.94353 22.7126 -178.123 -3.39693
lowerback 19.6079 -4.45695 -3.04192
upperback 7.07671 -7.6764 1.02731
thorax -2.72051 -4.36211 4.43833
lowerneck -19.3057 2.85726 2.31455
upperneck 30.2251 4.02962 2.65546
head 13.4047 2.80712 1.42975
rclavicle -5.56597e-015 3.73715e-014
rhumerus -24.2618 26.1026 -80.2421
rradius 72.3422
rwrist -27.0642
rhand -28.2785 17.3342
rfingers 7.12502
rthumb -1.65493 -12.6392
lclavicle -5.56597e-015 3.73715e-014
lhumerus 15.2376 -39.0179 79.9887
lradius 29.0476
lwrist 19.3098
lhand -28.0073 58.2488
lfingers 7.12502
lthumb -1.393 -631.776
rfemur -44.6864 7.01921 7.45479
rtibia 25.5773
rfoot -8.00323 7.73428
rtoes -27.9852
lfemur -27.8981 -6.33908 -10.8278
ltibia 25.459
lfoot -16.2658 9.50325
ltoes -28.5209
1171
root 22.6234 17.5418 -2.00637 23.5932 -177.973 -2.96438
lowerback 19.8246 -4.58874 -2.55926
upperback 7.2861 -7.81054 1.2071
thorax -2.62913 -4.44965 4.39743
lowerneck -19.2137 3.23195 2.71856
upperneck 29.7923 4.38268 2.67664
head 13.2139 2.98928 1.40858
rclavicle -1.145e-013 4.37326e-014
rhumerus -23.4571 25.007 -79.9919
rradius 72.916
rwrist -27.3268
rhand -28.5856 17.456
rfingers 7.12502
rthumb -1.95147 -12.5148
lclavicle -1.145e-013 4.37326e-014
lhumerus 16.2506 -37.8731 79.6607
lradius 27.8796
lwrist 19.468
lhand -27.5324 58.0101
lfingers 7.12502
lthumb -0.934298 -632.012
rfemur -45.2864 7.26979 8.24639
rtibia 25.2197
rfoot -7.83569 7.53449
rtoes -27.4032
lfemur -28.374 -5.63236 -10.5275
ltibia 25.4337
lfoot -16.3991 11.0846
ltoes -27.982
1172
root 22.7394 17.5612 -2.06462 24.3645 -177.631 -2.69322
lowerback 20.1255 -4.80094 -2.08132
upperback 7.51369 -8.06153 1.40043
thorax -2.54792 -4.5979 4.40608
lowerneck -19.1306 3.50436 2.77438
upperneck 29.3496 4.66316 2.81323
head 13.0097 3.11593 1.47737
rclavicle 8.5875e-014 -2.54444e-014
rhumerus -22.8337 23.9363 -79.758
rradius 73.6313
rwrist -27.7042
rhand -29.1234 17.6821
rfingers 7.12502
rthumb -2.47084 -12.2833
lclavicle 8.5875e-014 -2.54444e-014
lhumerus 16.9966 -36.4218 79.7541
lradius 26.4102
lwrist 18.5328
lhand -27.2177 57.8705
lfingers 7.12502
lthumb -0.630305 -632.151
rfemur -45.6246 7.62861 8.68579
rtibia 24.6273
rfoot -7.44377 7.01039
rtoes -26.2018
lfemur -28.833 -5.57942 -10.2741
ltibia 25.5105
lfoot -16.6325 12.4123
ltoes -26.9676
1173
root 22.8366 17.5883 -2.12128 24.9837 -177.199 -2.48522
lowerback 20.5008 -5.09525 -1.44376
upperback 7.76555 -8.40152 1.58585
thorax -2.49337 -4.79036 4.34661
lowerneck -19.202 3.87174 2.91297
upperneck 28.9729 5.12972 2.67105
head 12.8769 3.2915 1.46149
rclavicle 5.64548e-014 -2.46493e-014
rhumerus -22.2619 22.9961 -79.4877
rradius 74.3591
rwrist -28.1228
rhand -29.7218 17.7273
rfingers 7.12502
rthumb -3.04878 -12.2306
lclavicle 5.64548e-014 -2.46493e-014
lhumerus 17.7255 -34.7885 79.9826
lradius 24.7546
lwrist 17.1715
lhand -26.9717 58.2109
lfingers 7.12502
lthumb -0.392772 -631.81
rfemur -45.6923 7.92913 9.01973
rtibia 23.9053
rfoot -7.1039 6.42884
rtoes -25.7176
lfemur -29.2239 -6.1825 -9.99947
ltibia 25.6307
lfoot -16.8596 13.8095
ltoes -24.955
